<svg xmlns="http://www.w3.org/2000/svg"  width="100" height="100" viewBox="0 0 469.09 469.09"><title>codepen</title><g id="Layer_2" data-name="Layer 2"><g id="Layer_1-2" data-name="Layer 1"><path d="M234.55,0C105,0,0,105,0,234.55S105,469.09,234.55,469.09s234.54-105,234.54-234.54S364.09,0,234.55,0Zm0,430.58c-108.09,0-196-87.94-196-196s87.94-196,196-196,196,87.94,196,196S342.64,430.58,234.55,430.58Z" fill="#231f20"/><path d="M379.46,188.74c0-.19-.07-.36-.1-.54-.06-.36-.13-.71-.22-1s-.13-.4-.19-.6-.2-.61-.32-.91-.19-.41-.28-.61a8,8,0,0,0-.43-.82c-.11-.2-.23-.39-.35-.58s-.34-.52-.53-.76-.28-.37-.42-.54-.41-.46-.63-.67-.32-.34-.49-.49-.47-.41-.71-.6-.37-.29-.56-.42L374,180,241.46,91.62a12.47,12.47,0,0,0-13.83,0L95.07,180l-.2.16c-.2.13-.38.28-.56.42a8.32,8.32,0,0,0-.71.6,5.78,5.78,0,0,0-.5.49c-.22.21-.42.44-.62.67s-.29.36-.43.54-.36.5-.52.76-.25.38-.36.58-.29.54-.42.82-.2.4-.28.61-.22.6-.32.91-.14.39-.2.6-.15.69-.21,1c0,.18-.08.35-.1.54a10.84,10.84,0,0,0-.12,1.62v88.38a11.07,11.07,0,0,0,.12,1.63c0,.17.07.36.1.53.06.35.12.7.21,1.05s.13.4.2.6.2.61.32.92.18.4.28.6.27.56.42.83.23.38.36.57.34.51.52.76.28.36.43.54.4.46.62.67a5.78,5.78,0,0,0,.5.49,8.23,8.23,0,0,0,.71.59c.18.15.36.29.56.43s.13.11.2.15l132.56,88.38a12.44,12.44,0,0,0,13.83,0L374,289.1l.21-.15c.19-.14.38-.28.56-.43s.48-.38.71-.59.33-.32.49-.49.43-.44.63-.67.29-.35.42-.54.36-.5.53-.76.24-.38.35-.57a9.33,9.33,0,0,0,.43-.83l.28-.6c.12-.31.22-.61.32-.92s.14-.4.19-.6.16-.7.22-1.05c0-.17.08-.36.1-.53a12.63,12.63,0,0,0,.11-1.63V190.36A12.36,12.36,0,0,0,379.46,188.74ZM247,125.28l97.66,65.1-43.62,29.18-54-36.15Zm-24.93,0v58.13l-54,36.15-43.62-29.18ZM114.45,213.69l31.18,20.86-31.18,20.86ZM222.08,343.82l-97.65-65.1,43.62-29.17,54,36.14ZM234.55,264l-44.08-29.49,44.08-29.49,44.08,29.49ZM247,343.82V285.69l54-36.14,43.62,29.17Zm107.63-88.41-31.18-20.86,31.18-20.86Z" fill="#231f20"/></g></g></svg>