
<svg version="1.1" id="Capa_1"  width="100" height="100" xmlns="http://www.w3.org/2000/svg" xmlns:xlink="http://www.w3.org/1999/xlink" x="0px" y="0px"
	 viewBox="0 0 100 100" style="enable-background:new 0 0 100 100;" xml:space="preserve">
<style type="text/css">
	.st0{fill:#4267B2;}
</style>
<g>
	<path class="st0" d="M50,0.2c-27.6,0-50,22.4-50,50C0,75,18,95.5,41.7,99.5V60.6H29.6v-14h12.1V36.4c0-12,7.3-18.5,18-18.5
		c5.1,0,9.5,0.4,10.8,0.5v12.5L63,31c-5.8,0-6.9,2.8-6.9,6.8v8.9h13.8l-1.8,14h-12v39.2c24.7-3,43.9-24,43.9-49.6
		C100,22.6,77.6,0.2,50,0.2z"/>
</g>
</svg>
