<svg xmlns="http://www.w3.org/2000/svg" width="300" viewBox="0 0 472 491" id="el_ngd36gYP8"><style>@-webkit-keyframes kf_el_uwGZtu0dQ6X_an_oVFoN3KOx{0%{-webkit-transform: translate(84.30040740966797px, 305.2289123535156px) rotate(0deg) translate(-84.30040740966797px, -305.2289123535156px);transform: translate(84.30040740966797px, 305.2289123535156px) rotate(0deg) translate(-84.30040740966797px, -305.2289123535156px);}50%{-webkit-transform: translate(84.30040740966797px, 305.2289123535156px) rotate(3deg) translate(-84.30040740966797px, -305.2289123535156px);transform: translate(84.30040740966797px, 305.2289123535156px) rotate(3deg) translate(-84.30040740966797px, -305.2289123535156px);}100%{-webkit-transform: translate(84.30040740966797px, 305.2289123535156px) rotate(0deg) translate(-84.30040740966797px, -305.2289123535156px);transform: translate(84.30040740966797px, 305.2289123535156px) rotate(0deg) translate(-84.30040740966797px, -305.2289123535156px);}}@keyframes kf_el_uwGZtu0dQ6X_an_oVFoN3KOx{0%{-webkit-transform: translate(84.30040740966797px, 305.2289123535156px) rotate(0deg) translate(-84.30040740966797px, -305.2289123535156px);transform: translate(84.30040740966797px, 305.2289123535156px) rotate(0deg) translate(-84.30040740966797px, -305.2289123535156px);}50%{-webkit-transform: translate(84.30040740966797px, 305.2289123535156px) rotate(3deg) translate(-84.30040740966797px, -305.2289123535156px);transform: translate(84.30040740966797px, 305.2289123535156px) rotate(3deg) translate(-84.30040740966797px, -305.2289123535156px);}100%{-webkit-transform: translate(84.30040740966797px, 305.2289123535156px) rotate(0deg) translate(-84.30040740966797px, -305.2289123535156px);transform: translate(84.30040740966797px, 305.2289123535156px) rotate(0deg) translate(-84.30040740966797px, -305.2289123535156px);}}@-webkit-keyframes kf_el_BBgmpxH5wN_an__VaMJQThB{0%{-webkit-transform: translate(38.22999954223633px, 151.32998657226562px) translate(-38.22999954223633px, -151.32998657226562px) translate(0px, 0px);transform: translate(38.22999954223633px, 151.32998657226562px) translate(-38.22999954223633px, -151.32998657226562px) translate(0px, 0px);}50%{-webkit-transform: translate(38.22999954223633px, 151.32998657226562px) translate(-38.22999954223633px, -151.32998657226562px) translate(3px, 5px);transform: translate(38.22999954223633px, 151.32998657226562px) translate(-38.22999954223633px, -151.32998657226562px) translate(3px, 5px);}100%{-webkit-transform: translate(38.22999954223633px, 151.32998657226562px) translate(-38.22999954223633px, -151.32998657226562px) translate(0px, 0px);transform: translate(38.22999954223633px, 151.32998657226562px) translate(-38.22999954223633px, -151.32998657226562px) translate(0px, 0px);}}@keyframes kf_el_BBgmpxH5wN_an__VaMJQThB{0%{-webkit-transform: translate(38.22999954223633px, 151.32998657226562px) translate(-38.22999954223633px, -151.32998657226562px) translate(0px, 0px);transform: translate(38.22999954223633px, 151.32998657226562px) translate(-38.22999954223633px, -151.32998657226562px) translate(0px, 0px);}50%{-webkit-transform: translate(38.22999954223633px, 151.32998657226562px) translate(-38.22999954223633px, -151.32998657226562px) translate(3px, 5px);transform: translate(38.22999954223633px, 151.32998657226562px) translate(-38.22999954223633px, -151.32998657226562px) translate(3px, 5px);}100%{-webkit-transform: translate(38.22999954223633px, 151.32998657226562px) translate(-38.22999954223633px, -151.32998657226562px) translate(0px, 0px);transform: translate(38.22999954223633px, 151.32998657226562px) translate(-38.22999954223633px, -151.32998657226562px) translate(0px, 0px);}}@-webkit-keyframes kf_el_uwGZtu0dQ6X_an_x0cEjbqUh{0%{-webkit-transform: translate(84.30040740966797px, 305.2289123535156px) translate(-84.30040740966797px, -305.2289123535156px) translate(0px, 0px);transform: translate(84.30040740966797px, 305.2289123535156px) translate(-84.30040740966797px, -305.2289123535156px) translate(0px, 0px);}50%{-webkit-transform: translate(84.30040740966797px, 305.2289123535156px) translate(-84.30040740966797px, -305.2289123535156px) translate(0px, 1px);transform: translate(84.30040740966797px, 305.2289123535156px) translate(-84.30040740966797px, -305.2289123535156px) translate(0px, 1px);}100%{-webkit-transform: translate(84.30040740966797px, 305.2289123535156px) translate(-84.30040740966797px, -305.2289123535156px) translate(0px, 0px);transform: translate(84.30040740966797px, 305.2289123535156px) translate(-84.30040740966797px, -305.2289123535156px) translate(0px, 0px);}}@keyframes kf_el_uwGZtu0dQ6X_an_x0cEjbqUh{0%{-webkit-transform: translate(84.30040740966797px, 305.2289123535156px) translate(-84.30040740966797px, -305.2289123535156px) translate(0px, 0px);transform: translate(84.30040740966797px, 305.2289123535156px) translate(-84.30040740966797px, -305.2289123535156px) translate(0px, 0px);}50%{-webkit-transform: translate(84.30040740966797px, 305.2289123535156px) translate(-84.30040740966797px, -305.2289123535156px) translate(0px, 1px);transform: translate(84.30040740966797px, 305.2289123535156px) translate(-84.30040740966797px, -305.2289123535156px) translate(0px, 1px);}100%{-webkit-transform: translate(84.30040740966797px, 305.2289123535156px) translate(-84.30040740966797px, -305.2289123535156px) translate(0px, 0px);transform: translate(84.30040740966797px, 305.2289123535156px) translate(-84.30040740966797px, -305.2289123535156px) translate(0px, 0px);}}@-webkit-keyframes kf_el_aMWn-vibeA_an_-1ngbmxyE{0%{-webkit-transform: translate(42.33625030517578px, 151.32998657226562px) translate(-42.33625030517578px, -151.32998657226562px) translate(0px, 0px);transform: translate(42.33625030517578px, 151.32998657226562px) translate(-42.33625030517578px, -151.32998657226562px) translate(0px, 0px);}50%{-webkit-transform: translate(42.33625030517578px, 151.32998657226562px) translate(-42.33625030517578px, -151.32998657226562px) translate(-15px, 0px);transform: translate(42.33625030517578px, 151.32998657226562px) translate(-42.33625030517578px, -151.32998657226562px) translate(-15px, 0px);}100%{-webkit-transform: translate(42.33625030517578px, 151.32998657226562px) translate(-42.33625030517578px, -151.32998657226562px) translate(0px, 0px);transform: translate(42.33625030517578px, 151.32998657226562px) translate(-42.33625030517578px, -151.32998657226562px) translate(0px, 0px);}}@keyframes kf_el_aMWn-vibeA_an_-1ngbmxyE{0%{-webkit-transform: translate(42.33625030517578px, 151.32998657226562px) translate(-42.33625030517578px, -151.32998657226562px) translate(0px, 0px);transform: translate(42.33625030517578px, 151.32998657226562px) translate(-42.33625030517578px, -151.32998657226562px) translate(0px, 0px);}50%{-webkit-transform: translate(42.33625030517578px, 151.32998657226562px) translate(-42.33625030517578px, -151.32998657226562px) translate(-15px, 0px);transform: translate(42.33625030517578px, 151.32998657226562px) translate(-42.33625030517578px, -151.32998657226562px) translate(-15px, 0px);}100%{-webkit-transform: translate(42.33625030517578px, 151.32998657226562px) translate(-42.33625030517578px, -151.32998657226562px) translate(0px, 0px);transform: translate(42.33625030517578px, 151.32998657226562px) translate(-42.33625030517578px, -151.32998657226562px) translate(0px, 0px);}}@-webkit-keyframes kf_el_dyYFWfaRED_an_q1cmVs_Av{0%{-webkit-transform: translate(38.22999954223633px, 287.3500061035156px) rotate(0deg) translate(-38.22999954223633px, -287.3500061035156px);transform: translate(38.22999954223633px, 287.3500061035156px) rotate(0deg) translate(-38.22999954223633px, -287.3500061035156px);}50%{-webkit-transform: translate(38.22999954223633px, 287.3500061035156px) rotate(-10deg) translate(-38.22999954223633px, -287.3500061035156px);transform: translate(38.22999954223633px, 287.3500061035156px) rotate(-10deg) translate(-38.22999954223633px, -287.3500061035156px);}100%{-webkit-transform: translate(38.22999954223633px, 287.3500061035156px) rotate(0deg) translate(-38.22999954223633px, -287.3500061035156px);transform: translate(38.22999954223633px, 287.3500061035156px) rotate(0deg) translate(-38.22999954223633px, -287.3500061035156px);}}@keyframes kf_el_dyYFWfaRED_an_q1cmVs_Av{0%{-webkit-transform: translate(38.22999954223633px, 287.3500061035156px) rotate(0deg) translate(-38.22999954223633px, -287.3500061035156px);transform: translate(38.22999954223633px, 287.3500061035156px) rotate(0deg) translate(-38.22999954223633px, -287.3500061035156px);}50%{-webkit-transform: translate(38.22999954223633px, 287.3500061035156px) rotate(-10deg) translate(-38.22999954223633px, -287.3500061035156px);transform: translate(38.22999954223633px, 287.3500061035156px) rotate(-10deg) translate(-38.22999954223633px, -287.3500061035156px);}100%{-webkit-transform: translate(38.22999954223633px, 287.3500061035156px) rotate(0deg) translate(-38.22999954223633px, -287.3500061035156px);transform: translate(38.22999954223633px, 287.3500061035156px) rotate(0deg) translate(-38.22999954223633px, -287.3500061035156px);}}#el_ngd36gYP8 *{-webkit-animation-duration: 5s;animation-duration: 5s;-webkit-animation-iteration-count: infinite;animation-iteration-count: infinite;-webkit-animation-timing-function: cubic-bezier(0, 0, 1, 1);animation-timing-function: cubic-bezier(0, 0, 1, 1);}#el_F-5LmRQuvm{fill: #238ba1;}#el_JanL1oWUcm{fill: #fff;}#el_aONOwBsA-3{fill: #fff;}#el_osJHc_QRLS{fill: #4cc5d8;}#el_u-i-QZsjGm{fill: #227487;}#el_Pcktfoz3qH{fill: none;stroke: #294456;stroke-width: 1.29;}#el_dyYFWfaRED{fill: none;stroke: #294456;stroke-width: 1.29;}#el_1Nd8_2hvBS{fill: #97d6d8;}#el_Tm_3PBscL8{fill: #294456;}#el_avMJqc4rwO4{fill: #294456;opacity: 0.32;}#el_M8Wd14bQhmm{fill: #f5f6f6;opacity: 0.3;}#el_QhyOS695gwF{fill: #f3cfb4;stroke: #294456;stroke-width: 1.86;}#el_mQHEuR7BdYc{fill: #ee7f40;stroke: #294456;stroke-width: 1.86;}#el_212hcyudsYd{fill: #f3cfb4;stroke: #294456;stroke-width: 1.86;}#el_IvJtCqTpXri{fill: #55c4c6;stroke: #294456;stroke-width: 1.86;}#el_Fn-uJD5GjBR{fill: #f3cfb4;stroke: #294456;stroke-width: 1.86;}#el_ZDU9DqMecx1{fill: #ee7f40;stroke: #294456;stroke-width: 1.86;}#el_3e5SnRsaU8O{fill: #e4bea4;stroke: #2a4456;stroke-width: 1.86;}#el_O4y7aXcGyw_{fill: #f3cfb4;stroke: #294456;stroke-width: 1.86;}#el_LmvO_GCCfGk{fill: #616a6b;stroke: #294456;stroke-width: 1.86;}#el_qS4UNgn_9t1{fill: #2a4456;stroke: #2a4456;stroke-width: 0.97;}#el_o_m7LhXAT07{fill: #f3cfb4;stroke: #294456;stroke-width: 1.86;}#el_MULZd9jpIgQ{fill: #55c4c6;stroke: #294456;stroke-width: 1.86;}#el_a4QsejJ351K{fill: #616a6b;stroke: #294456;stroke-width: 1.44;}#el_U9kv9ARMO33{fill: #fff;stroke: #294456;stroke-width: 1.86;}#el_jd0BF3_vk6B{fill: none;stroke: #294456;stroke-width: 0.53;}#el_kIVvVtyqbA6{fill: none;stroke: #294456;stroke-width: 0.53;}#el_7zgAQu0Ny2x{fill: #616a6b;stroke: #294456;stroke-width: 1.44;}#el_nALNbnXVuGt{fill: #fff;stroke: #294456;stroke-width: 1.86;}#el_Zttk7LPBEVg{fill: none;stroke: #294456;stroke-width: 0.53;}#el_quSBFWdq6yb{fill: none;stroke: #294456;stroke-width: 0.53;}#el_8b8mJZXmZKO{fill: #ee7f40;stroke: #294456;stroke-width: 1.86;}#el_GFKpX2Q4JlO{fill: #fff;stroke: #294456;stroke-width: 1.86;}#el_dN_8twiyMUQ{fill: #294456;}#el_lbNqHArEJk3{fill: #294456;}#el_twPeH0L0a5F{fill: #afbb3d;stroke: #294456;stroke-width: 1.86;}#el_y7y2Tck_z2I{fill: #fff;stroke: #294456;stroke-width: 1.24;}#el_0U0ZSE6_M6G{fill: #ffd86a;stroke: #294456;stroke-width: 1.86;}#el_h08AO5BRE0r{fill: #5a3213;opacity: 0.29;}#el_XjHo1G6RSjV{fill: #f3cfb4;stroke: #294456;stroke-width: 1.24;}#el_ETuI3Ky4kDA{fill: #f3cfb4;stroke: #294456;stroke-width: 1.86;}#el_dINq4Wu4Jzz{fill: #294456;}#el_XN-OJiHjgo1{fill: #294456;}#el_gRwZl5n1kME{fill: none;stroke: #294456;stroke-width: 1.24;}#el_n0X34f6QtqH{fill: #ffd86a;}#el_kJ8hEjM6-Si{fill: #5a3213;opacity: 0.29;}#el_M29_1ECBZnG{fill: none;stroke: #294456;stroke-width: 1.86;}#el_MTXDIwPMMFF{fill: none;stroke: #294456;stroke-width: 1.24;}#el__pIPorl5xJy{fill: none;stroke: #294456;stroke-width: 1.24;}#el_0N1b-iC5w-U{fill: #f15858;}#el_Zygx53R3JtU{fill: #ee7f40;stroke: #294456;stroke-width: 1.86;}#el_ojgOhf291OX{fill: #ee7f40;stroke: #294456;stroke-width: 1.86;}#el_9NN01tYJyoa{fill: #294456;opacity: 0.32;}#el_DGsMivC6bb6{fill: #fff;}#el_arpnwXPNyBp{fill: #f3cfb4;stroke: #294456;stroke-width: 1.29;}#el_lu9n5Enwime{fill: #f3cfb4;stroke: #294456;stroke-width: 1.86;}#el_tJfcV_RvG4V{fill: #294456;}#el__GGI3gvBv9g{fill: #294456;}#el_rBPdFlFg7qT{fill: none;stroke: #294456;stroke-width: 1.29;}#el_WgzV6FYS1Em{fill: #f9d97c;stroke: #294456;stroke-width: 1.86;}#el_lUl6syVhU5Z{fill: #f3cfb4;stroke: #294456;stroke-width: 1.86;}#el_4oZcvdm-F14{fill: #405d6e;stroke: #2a4456;stroke-width: 1.49;}#el_ZRM_0eOH6Ty{fill: #5a9696;stroke: #294456;stroke-width: 1.86;}#el_F6YggPyoXTn{fill: #72b6b3;stroke: #294456;stroke-width: 1.86;}#el_zdJz6ScQcEp{fill: #616a6b;}#el_q5KAivhP1cp{fill: #294456;}#el_jtSQYwXL2FO{opacity: 0.32;}#el_r2ilprDPoS_{fill: #294456;}#el_YvQasUoX1h6{fill: #fff;stroke: #294456;stroke-width: 1.52;}#el_AYvjEVLkSyv{fill: #f3cfb4;stroke: #294456;stroke-width: 1.45;}#el_x92968cBjmf{fill: #f3cfb4;stroke: #294456;stroke-width: 1.86;}#el_utPlWz_otk6{fill: #294456;}#el_3ehJlgaRz8y{fill: #294456;}#el_0fa2lQa0Bys{fill: #294456;}#el_jVtkqYBgx-o{fill: none;stroke: #294456;stroke-width: 0.97;}#el_HU81ymaymGw{fill: #ba7e36;stroke: #294456;stroke-width: 1.86;}#el_MyT81zEupp1{fill: #f5f6f6;}#el_ezs64_pLg4H{fill: #f3cfb4;stroke: #294456;stroke-width: 1.86;}#el_K1cP_ljsMO9{fill: #787878;stroke: #294456;stroke-width: 1.86;}#el_qYSx-7txAKM{fill: #f3cfb4;stroke: #294456;stroke-width: 1.86;}#el_yYNt89udaTa{fill: #f3cfb4;stroke: #294456;stroke-width: 1.86;}#el_nQEuGb5qPQO{fill: #afbb3d;stroke: #294456;stroke-width: 1.86;}#el_NWc1NMUjcoC{fill: #afbb3d;stroke: #294456;stroke-width: 1.86;}#el_ebUJbC9hm9-{fill: none;stroke: #294456;stroke-width: 1.86;}#el_m6WqubFV3Me{fill: #fff;stroke: #294456;stroke-width: 1.77;}#el_pM35R-osEoW{fill: none;stroke: #294456;stroke-width: 1.86;}#el_XJNLyMR-Ega{fill: none;stroke: #294456;stroke-width: 1.86;}#el_56l-xorqX3q{fill: none;stroke: #294456;stroke-width: 1.86;}#el_fxH4WySPeSS{fill: none;stroke: #294456;stroke-width: 1.86;}#el_ncV-Lig24Wt{fill: #a4aab3;stroke: #294456;stroke-width: 1.86;}#el__MJjHI0CgOE{fill: #a4aab3;stroke: #294456;stroke-width: 1.86;}#el_DpfGmgiMcTn{fill: #278089;stroke: #294456;stroke-width: 3.1;}#el_dyYFWfaRED_an_q1cmVs_Av{-webkit-animation-fill-mode: backwards;animation-fill-mode: backwards;-webkit-transform: translate(38.22999954223633px, 287.3500061035156px) rotate(0deg) translate(-38.22999954223633px, -287.3500061035156px);transform: translate(38.22999954223633px, 287.3500061035156px) rotate(0deg) translate(-38.22999954223633px, -287.3500061035156px);-webkit-animation-name: kf_el_dyYFWfaRED_an_q1cmVs_Av;animation-name: kf_el_dyYFWfaRED_an_q1cmVs_Av;-webkit-animation-timing-function: cubic-bezier(0, 0, 1, 1);animation-timing-function: cubic-bezier(0, 0, 1, 1);}#el_aMWn-vibeA_an_-1ngbmxyE{-webkit-animation-fill-mode: backwards;animation-fill-mode: backwards;-webkit-transform: translate(42.33625030517578px, 151.32998657226562px) translate(-42.33625030517578px, -151.32998657226562px) translate(0px, 0px);transform: translate(42.33625030517578px, 151.32998657226562px) translate(-42.33625030517578px, -151.32998657226562px) translate(0px, 0px);-webkit-animation-name: kf_el_aMWn-vibeA_an_-1ngbmxyE;animation-name: kf_el_aMWn-vibeA_an_-1ngbmxyE;-webkit-animation-timing-function: cubic-bezier(0, 0, 1, 1);animation-timing-function: cubic-bezier(0, 0, 1, 1);}#el_uwGZtu0dQ6X_an_x0cEjbqUh{-webkit-animation-fill-mode: backwards;animation-fill-mode: backwards;-webkit-transform: translate(84.30040740966797px, 305.2289123535156px) translate(-84.30040740966797px, -305.2289123535156px) translate(0px, 0px);transform: translate(84.30040740966797px, 305.2289123535156px) translate(-84.30040740966797px, -305.2289123535156px) translate(0px, 0px);-webkit-animation-name: kf_el_uwGZtu0dQ6X_an_x0cEjbqUh;animation-name: kf_el_uwGZtu0dQ6X_an_x0cEjbqUh;-webkit-animation-timing-function: cubic-bezier(0, 0, 1, 1);animation-timing-function: cubic-bezier(0, 0, 1, 1);}#el_BBgmpxH5wN_an__VaMJQThB{-webkit-animation-fill-mode: backwards;animation-fill-mode: backwards;-webkit-transform: translate(38.22999954223633px, 151.32998657226562px) translate(-38.22999954223633px, -151.32998657226562px) translate(0px, 0px);transform: translate(38.22999954223633px, 151.32998657226562px) translate(-38.22999954223633px, -151.32998657226562px) translate(0px, 0px);-webkit-animation-name: kf_el_BBgmpxH5wN_an__VaMJQThB;animation-name: kf_el_BBgmpxH5wN_an__VaMJQThB;-webkit-animation-timing-function: cubic-bezier(0, 0, 1, 1);animation-timing-function: cubic-bezier(0, 0, 1, 1);}#el_uwGZtu0dQ6X_an_oVFoN3KOx{-webkit-animation-fill-mode: backwards;animation-fill-mode: backwards;-webkit-transform: translate(84.30040740966797px, 305.2289123535156px) rotate(0deg) translate(-84.30040740966797px, -305.2289123535156px);transform: translate(84.30040740966797px, 305.2289123535156px) rotate(0deg) translate(-84.30040740966797px, -305.2289123535156px);-webkit-animation-name: kf_el_uwGZtu0dQ6X_an_oVFoN3KOx;animation-name: kf_el_uwGZtu0dQ6X_an_oVFoN3KOx;-webkit-animation-timing-function: cubic-bezier(0, 0, 1, 1);animation-timing-function: cubic-bezier(0, 0, 1, 1);}</style><title>family-clean</title><g id="el_DE22FJjhX6" data-name="Layer 2"><g id="el_tFXQn33hye" data-name="Layer 1"><g id="el_QfT9DgKnPV">
    <g id="el_0AyEw6UQ0j"><path d="M472.71,302.71v31c-2.32,2.24-4.95,1.43-7.5.65a716.61,716.61,0,0,0-83.33-19.93q-28.15-5.06-56.71-7.8c-22.41-2.18-44.85-2.22-67.26-1.58-17.22.49-34.45,1.8-51.64,3.45-17.68,1.7-35.32,3.71-53,5.42-16.68,1.62-33.28,4.08-49.9,6.26-22.21,2.92-44.33,6.49-66.51,9.67-8.71,1.25-17.35,3-26.09,4-1.64.2-6.53,4.92-8.14,4.17-3.42-2.6,1.49-10.06,2.6-12.88a172.07,172.07,0,0,1,18.13-33.8A329.71,329.71,0,0,1,68.61,238.9a128.17,128.17,0,0,1,21.24-16.55c22.36-13.7,33.71-34.17,38.21-59.27a416.37,416.37,0,0,0,6.07-61.45c.64-21.75,4.12-43,14.17-62.76,8.88-17.45,22.47-29.55,40.92-36C195.85.59,202.93.56,209.92.5h18c21.64-.77,41.67,5.71,61.3,13.81a347.85,347.85,0,0,1,77,44c26.71,20.15,46.94,46.06,63.13,75.16,22.23,39.94,34.51,83.14,41,128.11,1.69,11.64,1.72,23.51,1.92,35.3C472.27,298.8,471.67,300.83,472.71,302.71Z"
              fill="#4cc5d8"/><path d="M1.3,335.65c0-.32.08-.64.13-1,.25-1.93,1-3.47,3.12-3.81,30.16-4.59,60.28-9.48,90.5-13.65q34.73-4.79,69.62-8.52c22.93-2.43,45.86-5.08,68.86-6.48a654.87,654.87,0,0,1,76.23-.57c39.92,2.22,79,9.39,117.83,18.43,12.76,3,25.3,6.87,38,10.34,2.23.62,4.39,1.61,6.78,1.48v20c-1,8.38-.66,16.83-1.49,25.22-2.71,27.73-8.87,54.57-23,78.81-11.5,19.69-29.86,29.61-52.1,32.84-3.1.45-6.25.13-9.32.75l-24.33.18c-7-1.13-14.21-1-21.12-3.28-19.19-6.29-35.3-17.57-50.58-30.31-17.86-14.91-38.51-23.24-61.45-26.34-18.49-2.51-36.35-.15-54,5.61-13.65,4.44-27.79,6.31-42.19,6.56-20.2.35-40.2-.77-59.77-6.18-16.65-4.6-34.81-8.64-46-22-1.36-1.64-4.49-3.19-3-6.51a6.34,6.34,0,0,1,4.65-1.43c20.32.3,40.42-2.59,60.6-4.22,18-1.46,36-3.72,54.14-3.76,16.78,0,33.43,2.37,50.15,3.59,15.07,1.1,30,3.34,45.2,3.34,5.15,0,10.29.59,15.41.77,19.14.66,38.2-.52,56.94-4.86a46,46,0,0,0,12.12-4.53,5.23,5.23,0,0,0,1.25-8.55A40.46,40.46,0,0,0,311.75,379C294,371,275.39,365.3,256.38,360.93c-18.62-4.29-37.32-8.25-56.33-10.33-12.53-1.37-25.06-2.8-37.65-3.8-16.64-1.32-33.26-.28-49.87-.85-14.84-.5-28.69,3.14-41.9,9.49-15.34,7.39-31.22,12.15-48.48,11.64-3.67-.11-7.36.27-11,.51-2.05.13-4.1.27-6.15.35-1.57.06-4.56,2.31-4.65,0L.17,363.4a150.62,150.62,0,0,1,.28-19.12C.7,341.4,1,338.52,1.3,335.65Z"
              fill="#238ba1"/><path d="M229,0c0,.3,0,.6.07.9H208.91c0-.3.05-.61.06-.91Z" fill="#b8e3ec"/><path d="M329.58,394.24c-.44,4.77-5,5.74-8.61,7.31-10.52,4.56-21.81,6-33,6.83-9.41.7-18.86,1.88-28.36,1.22-19.17-1.35-38.42-1.33-57.56-3.75-14.13-1.78-28.48-1.72-42.62-3.4-13.17-1.57-26.23-.59-39.28.29-16.52,1.12-33,3.31-49.47,4.64-15.55,1.25-27.19,7.92-42.83,7.39-12.77-11-25.71-29.83-27.5-46.9a.51.51,0,0,1,.48-.57c15.39-.83,31.71.3,46.86-3.52,11.72-2.95,22.17-9,33.38-13.12a74.13,74.13,0,0,1,25.28-5c15-.16,30-.36,44.93.05,13.91.39,27.73,2.32,41.58,3.65,27.53,2.65,54.49,8.18,81.07,15.42,16.63,4.52,33.35,9.36,48,19.18a9.07,9.07,0,0,1,.83.54C325.94,387.13,330,389.48,329.58,394.24Z"
              fill="#227487"/>
    </g><g id="el_BBgmpxH5wN_an__VaMJQThB" data-animator-group="true" data-animator-type="0"><g id="el_BBgmpxH5wN"><path id="el_Pcktfoz3qH" d="M38.34,285c0,.54-.05,1.08-.07,1.62-.68,18.72,8,19.73.52,32.3" stroke-linecap="round" stroke-linejoin="round"/><g id="el_dyYFWfaRED_an_q1cmVs_Av" data-animator-group="true" data-animator-type="1"><path id="el_dyYFWfaRED" d="M57.77,203.5s-17.85,50-19.54,83.85" stroke-linecap="round" stroke-linejoin="round"/></g><g id="el_aMWn-vibeA_an_-1ngbmxyE" data-animator-group="true" data-animator-type="0"><g id="el_aMWn-vibeA"><path d="M58.57,206.46a5.16,5.16,0,0,1-1.48-.19c-3.58-1.08-7.71-7.75-10.21-13.87-3.38-8.3-4.33-16.34-2.61-22.05C47.45,159.8,56.79,152.43,67,152.43a20.78,20.78,0,0,1,6.06.9,21.62,21.62,0,0,1,13.28,11.56,25.58,25.58,0,0,1,1.31,18.52C84,195.56,65.66,206.46,58.57,206.46Z" id="el_1Nd8_2hvBS"/><path d="M67,153.54a19.62,19.62,0,0,1,5.74.85c11.39,3.43,17.59,16.28,13.85,28.7-3.51,11.64-21.47,22.27-28,22.27a4,4,0,0,1-1.16-.15c-5.48-1.65-15.83-22.12-12.08-34.54,3.11-10.35,12.14-17.13,21.65-17.13m0-2.21h0c-10.68,0-20.45,7.69-23.77,18.7-2.55,8.45,1,18.75,2.65,22.78,2.41,5.91,6.71,13.25,10.91,14.52a6.27,6.27,0,0,0,1.8.24c7.35,0,26.33-11.28,30.12-23.84a26.63,26.63,0,0,0-1.38-19.32,22.69,22.69,0,0,0-14-12.14,21.9,21.9,0,0,0-6.38-.94Z" id="el_Tm_3PBscL8"/><path d="M76.07,155.77c6.67,5.59,9.64,15.36,6.77,24.88-3.62,12-22.65,22.95-28.59,22.23a7.84,7.84,0,0,0,3.1,2.33c5.21,1.57,25.42-9.69,29.16-22.12C89.86,172,85.24,160.51,76.07,155.77Z" id="el_avMJqc4rwO4"/><path d="M57.26,168.53c-4.07,6.06-5.42,12.29-8.22,10.41s-1.77-8.32,2.3-14.39S61,155.09,63.78,157,61.33,162.46,57.26,168.53Z" id="el_M8Wd14bQhmm"/></g></g></g></g><g id="el_uwGZtu0dQ6X_an_x0cEjbqUh" data-animator-group="true" data-animator-type="0"><g id="el_uwGZtu0dQ6X_an_oVFoN3KOx" data-animator-group="true" data-animator-type="1"><g id="el_uwGZtu0dQ6X"><path d="M44.47,285.42S40.81,282,39.26,282c-1.07,0-4.09,3-3.83,5.14.39,3.28,5.68,4.92,5.68,4.92Z" stroke-linecap="round" stroke-linejoin="round" id="el_QhyOS695gwF"/><path d="M77.67,305.22s-11.83-3.3-22.79-6.78a52.53,52.53,0,0,1-13.77-6.38l3.36-6.64a58.87,58.87,0,0,0,16.87,5.72c3,.54,13.7,1.26,16,1.51C86.87,293.7,86.26,305.6,77.67,305.22Z" stroke-linecap="round" stroke-linejoin="round" id="el_mQHEuR7BdYc"/><path d="M35,285.55c0,2.2,1.17,4,2.62,4s2.62-1.79,2.62-4-1.17-4-2.62-4S35,283.34,35,285.55Z" stroke-linecap="round" stroke-linejoin="round" id="el_212hcyudsYd"/></g></g></g><g id="el_AkJM4ntey29"><path d="M95.71,327.22S84,347.29,80.35,369.42c-.51,3.05-12,2.83-12,2.83s2.85-2.13,3.87-2.95c1.41-1.13,1.59-3.22,1.53-4.38-1-19.13,6.06-30.93,6.06-30.93Z" stroke-linejoin="round" id="el_IvJtCqTpXri"/><path d="M239.59,310.46,237,370.53l-7.1,5-7.61-2s4.66-2.08,6.75-4.16-5.49-60-5.49-60Z" stroke-linecap="round" stroke-linejoin="round" id="el_Fn-uJD5GjBR"/><path d="M224.05,310.4s-2,32,3.72,48.65c1,2.91,11.39.13,11.39.13l1.83-47Z" stroke-linecap="round" stroke-linejoin="round" id="el_ZDU9DqMecx1"/><path d="M237.73,309.42s-.4,30.33,6.37,36.07c1.94,1.64,10.51,7,14.58,10.37,5.71,4.74,4.77,5.72,7.15,11.35.18.43,1.69-4.6,2-5.49,1-2.53-.71-8.85-.71-8.85s-7.83-9.18-16.48-13.22c-1.56-.73,3.24-30.35,3.24-30.35Z" stroke-linecap="round" stroke-linejoin="round" id="el_3e5SnRsaU8O"/><path d="M129.39,309c4.85-.4,5.44,3,6.22,5,.7,1.82-4.13,2.64-8.57,3.74-6.39,1.6-9.1,1.2-9.1,1.2s.67-5.63,3.16-6.66C123.74,311.17,129.39,309,129.39,309Z" stroke-miterlimit="10" id="el_O4y7aXcGyw_"/><path d="M136.92,269.37s-3.1,5.79-6,20.95a126,126,0,0,0-2.2,15.33s0,.1-.06.27h7.14c.34-4,3.92-11.59,8.62-21.42,5-10.47,8-12.57,8-12.57l1.4-23.63S143.67,253.07,136.92,269.37Z" stroke-linejoin="round" id="el_LmvO_GCCfGk"/><path d="M200.7,354.85l9.72,6.37-3.32,5.06-2.22-1.46s1.64,2.34.31,4.37l-5.85,8.92s-3.87-2-3.14-4.48,3.81-7.8.76-11.75l-3.05-3.95Z" stroke-miterlimit="10" id="el_qS4UNgn_9t1"/><path d="M128,316.87c.76,2.47,5.09,3.62,5.94,3.54,1.79-.16,3.07-2.78,2.44-2.69-2.32.33-5-2-3.61-5.62.54-1.41.6-2.19,1-1.5,1.33,2.33.73,6.15.73,6.15a1.44,1.44,0,0,0,1,.8c1,.16,3.52-2.18,3.52-4.67,0-3-2.84-6.07-3.21-6.91v-.05h-7.14C128.32,307.34,127.07,313.92,128,316.87Z" stroke-miterlimit="10" id="el_o_m7LhXAT07"/><path d="M103.86,332.7a35.61,35.61,0,0,0-1.45,16.85c.49,2.81,5.87,11.66,5.87,11.66l-7,4.66A128.1,128.1,0,0,1,93,354.8c-5.82-9.06-5.44-20.4-5.44-20.4Z" stroke-linejoin="round" id="el_MULZd9jpIgQ"/><path d="M106.94,360.62l-5.49,3.78a1.41,1.41,0,0,0-.44,1.94l1,2.07s-3.16,2.31-1,5.4l1.38,2,11.42-7.87-2.89-4.2-.28-.42-1.67-2.41A1.41,1.41,0,0,0,106.94,360.62Z" stroke-linejoin="round" id="el_a4QsejJ351K"/><path d="M114.89,369.59a.69.69,0,0,1-.23,1l-10.22,7a.7.7,0,0,1-1-.13L101.75,375l11.42-7.87Z" stroke-linejoin="round" id="el_U9kv9ARMO33"/><path d="M101.51,366.9l3.46-2.38s1.11-1,2-.34" stroke-linecap="round" stroke-linejoin="round" id="el_jd0BF3_vk6B"/><path d="M101.76,368.87l3.46-2.38s1.1-1,2-.35" stroke-linecap="round" stroke-linejoin="round" id="el_kIVvVtyqbA6"/><path d="M80.49,365.38l-6.57-1.13a1.4,1.4,0,0,0-1.66,1.08l-.76,2.16s-3.87-.55-4.5,3.14c-.52,3-.41,2.39-.41,2.39l13.67,2.34.86-5,.09-.49L81.7,367A1.39,1.39,0,0,0,80.49,365.38Z" stroke-linejoin="round" id="el_7zgAQu0Ny2x"/><path d="M79.92,377.34a.69.69,0,0,1-.83.54l-12.24-2.1a.69.69,0,0,1-.6-.78l.5-3,13.68,2.34Z" stroke-linejoin="round" id="el_nALNbnXVuGt"/><path d="M72.22,366.09l4.14.7s1.47.09,1.66,1.13" stroke-linecap="round" stroke-linejoin="round" id="el_Zttk7LPBEVg"/><path d="M71,367.67l4.14.7s1.47.09,1.66,1.14" stroke-linecap="round" stroke-linejoin="round" id="el_quSBFWdq6yb"/><path d="M254.05,334c-.58-1.63-.14-24.73-.14-24.73l-17.81.23s1.92,27.16,7.56,34A83.84,83.84,0,0,0,258,356.83l6.73-10.16C260.89,342.91,255.55,338.29,254.05,334Z" stroke-linecap="round" stroke-linejoin="round" id="el_8b8mJZXmZKO"/><path d="M226.07,263.84s-6.63.76-9.56,10.27c-1.5,4.87-2.72,9.34-4.5,11.63-2.45,3.17-8-2.75-8-2.75l-4.54,6.46s8.7,14.31,20.93,5.87C226,291.47,229.23,268.46,226.07,263.84Z" stroke-linejoin="round" id="el_GFKpX2Q4JlO"/><path d="M233.13,370.06c-3.38,1.05-4.43-.47-4.43-.47a55.26,55.26,0,0,1-8.95,3.85c-1.58.68-1.49,3.09-1.49,3.09,0,.84,0,1.2,0,1.21h18.59a30.47,30.47,0,0,0,.93-7.56C237.78,369.36,236.59,369,233.13,370.06Z" id="el_dN_8twiyMUQ"/><path d="M265.88,357.69c-.59,3.9-2.45,4.36-2.45,4.36a68.8,68.8,0,0,1-.58,10.78c-.1,1.91,2.14,2.79,2.14,2.79.77.35,1.1.48,1.1.5L274.6,357a30.41,30.41,0,0,0-7-4.52C266.83,352.11,266.48,353.69,265.88,357.69Z" id="el_lbNqHArEJk3"/><path d="M253.67,313s2.05-2.56,2-7.8c0-3.48-2.7-5.27-2.21-7.56,1.4-6.52-2.93-8.16-1.05-10.71,5-6.84,1.89-8.55,2.78-12.09,1.64-6.53-1.32-7.49-4.5-9.66-4.06-2.78-10.67-3.68-13.6-3.64a31,31,0,0,0-11,2.28s-6.15,6.35-4.82,17.75c.44,3.76-1.8,2-1.22,11.7.16,2.59,1.77,4.69,1.83,5.33.18,1.76-1.56,4.72-1,8a13.07,13.07,0,0,0,2.16,5.21Z" stroke-miterlimit="10" id="el_twPeH0L0a5F"/><path d="M235.6,213.38c3.55,3.44,10.32-5.17,14.62,3.76,2.33,4.84,5,2,7.32,4.2,4.39,4.19-1.29,9.46,2.15,13.12,4.56,4.84,4.57,13.55-5.37,16.06-4.61,1.16-3.23,9.65-14.32,8-4.64-.68-8.38,1.72-13.87,1.39-6.71-.39-10.7-4.9-10.76-9.68,0-2.84-3.6-1.89-6.24-4.62a7.46,7.46,0,0,1-.54-10.11c2.59-3,5.52-2.88,3-8.06a6.09,6.09,0,0,1,5.52-8.83c4.31,0,5.31-2.49,7.07-4.44C227.53,210.47,233.18,211,235.6,213.38Z" stroke-linecap="round" stroke-linejoin="round" id="el_y7y2Tck_z2I"/><path d="M235.6,213.38c3.55,3.44,10.32-5.17,14.62,3.76,2.33,4.84,4.79,2.16,7.32,4.2,5,4-1.29,9.46,2.15,13.12,4.56,4.84,4.57,13.55-5.37,16.06-4.61,1.16-3.23,9.65-14.32,8-4.64-.68-8.38,1.72-13.87,1.39-6.71-.39-10.7-4.9-10.76-9.68,0-2.84-3.6-1.89-6.24-4.62a7.46,7.46,0,0,1-.54-10.11c2.59-3,5.52-2.88,3-8.06a6.09,6.09,0,0,1,5.52-8.83c4.31,0,5.31-2.49,7.07-4.44C227.53,210.47,233.18,211,235.6,213.38Z" stroke-linecap="round" stroke-linejoin="round" id="el_0U0ZSE6_M6G"/><path d="M259.69,234.46c-3.44-3.66,4-9.12-2.15-13.12-2.72-1.78-5,.64-7.32-4.2s-5.46-4.52-8.37-3.74c7.37.43,6.84,12.91-5.85,9.67-6.58-1.68-8.53,5-9.38,9.29-1.49,7.48-10.77,5.39-10.77,5.39s3.09,2.95,5.22,3.59c3,.91,3.91,15.64,11.8,17.34,1.65.36,5.68-.4,7.46-.14,11.08,1.61,9.31-7.16,14-8C264,248.73,264.25,239.3,259.69,234.46Z" id="el_h08AO5BRE0r"/><path d="M240,246.19l.85,16.2A7.38,7.38,0,0,1,234.9,265a3.65,3.65,0,0,1-3.39-2.38l.64-14.39Z" stroke-miterlimit="10" id="el_XjHo1G6RSjV"/><path d="M247.86,240.16c-.73,10.82-7.06,17.93-13.08,17.93s-12.56-6.92-13.6-17.71c-1.07-11.08,6.51-16.61,13.43-16.61S248.66,228.28,247.86,240.16Z" stroke-miterlimit="10" id="el_ETuI3Ky4kDA"/><path d="M241.84,240.92a1.41,1.41,0,1,1-1.4-1.44A1.42,1.42,0,0,1,241.84,240.92Z" id="el_dINq4Wu4Jzz"/><path d="M228.84,240.92a1.41,1.41,0,1,1-1.4-1.44A1.42,1.42,0,0,1,228.84,240.92Z" id="el_XN-OJiHjgo1"/><path d="M213.65,236.5c-.2-.18,3.68,6.5,12.7,2.8,8.1-3.32,5.8-12.48,12.48-12.69.36,1.75.84,5.39,4.36,7.41,2.21,1.28,7.67,1,8.49.78" stroke-linecap="round" stroke-linejoin="round" id="el_gRwZl5n1kME"/><path d="M254.38,233.77c-.81.24-3-3.43-4.52-8.35-2.62-8.43-11.3-5.32-12.46-4.87-3-.86-13.81-3.27-17.26,6-2.18,5.87-5.32,10.25-6.49,9.95s5.4,6.65,12.7,2.8c7.74-4.08,5.8-12.48,12.48-12.69,1.76,3.36,1.09,5,4.56,7.12C249,237.17,255.2,233.52,254.38,233.77Z" id="el_n0X34f6QtqH"/><path d="M254.38,233.77c-.81.24-3-3.43-4.52-8.35a7.8,7.8,0,0,0-3.86-5c-.95,2.29-4.05,3.1-10.31,2.28-7.66-1-8.94,5.3-9.07,9.63-.22,7.48-10.46,6.42-10.46,6.42l4.65,1.64a9.76,9.76,0,0,0,5.54-1.12c7.74-4.08,5.8-12.48,12.48-12.69,1.76,3.36,1.09,5,4.56,7.12C249,237.17,255.2,233.52,254.38,233.77Z" id="el_kJ8hEjM6-Si"/><path d="M213.65,236.5c-.2-.18,3.68,6.5,12.7,2.8,8.1-3.32,5.8-12.48,12.48-12.69.36,1.75.84,5.39,4.36,7.41,2.21,1.28,7.67,1,8.49.78" stroke-linecap="round" stroke-linejoin="round" id="el_M29_1ECBZnG"/><path d="M238.23,240.71a2.45,2.45,0,0,1,2.21-1.23c1.68-.06,1.79,1,3,1.13a1.7,1.7,0,0,0,1.51-.87" stroke-linecap="round" stroke-linejoin="round" id="el_MTXDIwPMMFF"/><path d="M229.92,240.71a2.44,2.44,0,0,0-2.2-1.23c-1.68-.06-1.79,1-3,1.13a1.94,1.94,0,0,1-1.52-.44" stroke-linecap="round" stroke-linejoin="round" id="el__pIPorl5xJy"/><path d="M230.86,249.62a5.52,5.52,0,0,0,2.85-.18,4.88,4.88,0,0,1,1.94,0,7,7,0,0,0,3.3.12s-1.2,3.34-4.21,3.34C232.06,252.89,230.86,249.62,230.86,249.62Z" id="el_0N1b-iC5w-U"/><path d="M100.6,293s6.46-.41,9.08,7.19c0,0,2,6.45,4.15,8.47,3.36,3.11,10.37,2,10.37,2l.32,8.58s-9.39,3.08-15.16-.82c-5.29-3.58-5.79-13.34-5.79-13.34Z" stroke-linecap="round" stroke-linejoin="round" id="el_Zygx53R3JtU"/><path d="M78.88,293.45c2.92-2.37,12.39-1.92,12.39-1.92s7.74.44,11,1.41c1.75.51,3.49,1.55,3.49,5.88,0,5.06-.3,22.23-1,35.62-.14,2.68-1.75,2.61-2.85,2.61L79.76,337a2,2,0,0,1-2.07-1.86l-1.14-32.62S75.77,296,78.88,293.45Z" stroke-linecap="round" stroke-linejoin="round" id="el_ojgOhf291OX"/><path d="M79.51,293.14a9,9,0,0,1,3.15-1.05,65.07,65.07,0,0,0-1.11,16.08c.31,12.14.19,17.47,1.3,23.95.61,3.63,5.42,4.32,7.39,4.86l-10.48,0a2,2,0,0,1-2.07-1.86l-1-32.31S76.67,294.27,79.51,293.14Z" id="el_9NN01tYJyoa"/><path d="M82.43,292.67a23,23,0,0,1,6.75-.32,37.41,37.41,0,0,1,5.17,0c1.9.25,4,.45,4,.53s-2.23,1.58-6.79,7.16c-1.88,2.3-3.94,5.23-3.94,5.23S82.93,297.87,82.43,292.67Z" id="el_DGsMivC6bb6"/><path d="M85.09,279l-.3,13.08s1.67,2.29,5.84,2.29c3.74,0,5.08-2.18,5.08-2.18l-.86-12.25Z" stroke-miterlimit="10" id="el_arpnwXPNyBp"/><path d="M104.91,273.34a2.12,2.12,0,0,0-2.66.49c.47-1.69.74-2.83.74-2.83s2.41-11.53-9.93-13.91c-12.93-2.49-14.19,6.84-14.19,6.84a51,51,0,0,0-1.57,10.94c-.18,6.19,1.49,13.08,9.44,14.67a12.5,12.5,0,0,0,13-7.77c.09-.25.18-.5.26-.75a19.08,19.08,0,0,1-1,2.6s1.94.67,4.07-2.49S106.46,274.42,104.91,273.34Z" stroke-linecap="round" stroke-linejoin="round" id="el_lu9n5Enwime"/><path d="M83.4,271a1.22,1.22,0,1,1-2.39-.5,1.21,1.21,0,0,1,1.44-1A1.23,1.23,0,0,1,83.4,271Z" id="el_tJfcV_RvG4V"/><path d="M94,273.11a1.23,1.23,0,1,1-1-1.45A1.22,1.22,0,0,1,94,273.11Z" id="el__GGI3gvBv9g"/><path d="M83,282.1a4.57,4.57,0,0,0,2.7,1c1.13.11,3.69-.37,4.36-1.92" stroke-linecap="round" stroke-linejoin="round" id="el_rBPdFlFg7qT"/><path d="M78.57,264.73s-2.11-8.47,2.81-12.44c2.17-1.76,4.41-2.45,8-3.06,13.11-2.25,20.67,4.88,21.1,9.75.87,10-4.6,15.54-4.6,15.54a2.48,2.48,0,0,0-1.57-1.83,6,6,0,0,0-2,.4s-2.19-6.21-4.64-7.93.3,4.91.3,4.91a100.32,100.32,0,0,1-11-6.37C85.19,262.49,80.53,258.22,78.57,264.73Z" stroke-linecap="round" stroke-linejoin="round" id="el_WgzV6FYS1Em"/><path d="M133.67,309.39a2.43,2.43,0,0,1,2.48,2.56c0,2,.39,3.48-1.68,4.8-1.73,1.1-2.47.16-2.22-2.65C132.53,310.9,132.2,309.66,133.67,309.39Z" stroke-miterlimit="10" id="el_lUl6syVhU5Z"/><path d="M145.25,366.13l.06,11.88-6.19,0,0-2.71s-1.06,2.71-3.55,2.72l-10.91.06s-.45-4.46,2-5.21,8.81-1.16,10.45-6l1.65-4.83Z" stroke-linecap="round" stroke-linejoin="round" id="el_4oZcvdm-F14"/><path d="M159.27,300.28s-6.31,5.39-13.64,21.64c-9.16,20.33-10.16,45.68-10.16,45.68l11.23,1.21s2.59-30.64,24.45-53.55C189,296.59,159.27,300.28,159.27,300.28Z" stroke-linejoin="round" id="el_ZRM_0eOH6Ty"/><path d="M165.11,299.66s-.26,12.09,5.18,29.06c6.81,21.23,27.43,34.57,27.43,34.57l4.91-8.44s-18.41-15.41-17.52-47.06C185.84,282,165.11,299.66,165.11,299.66Z" stroke-linejoin="round" id="el_F6YggPyoXTn"/><path d="M153.78,307.18a.94.94,0,0,1-.9-.84l-3.13-32.06c-.46-1.45-4.79-15.86.16-23.44a10,10,0,0,1,7.74-4.46l26.83-.07c.33,0,7.27.29,9.68,3.48a4.25,4.25,0,0,1,.71,3.69c-9.06,37.34-9.09,53.53-9.09,53.69a.92.92,0,0,1-.93.93Z" id="el_zdJz6ScQcEp"/><path d="M184.48,247.24s10.85.39,9.49,6c-9.21,37.94-9.12,53.91-9.12,53.91l-31-.92-3.15-32.16s-8.12-25.23,7.09-26.79l26.73-.06m0-1.86h0l-26.74.06h-.18a10.87,10.87,0,0,0-8.43,4.89c-5.08,7.78-.9,22.18-.3,24.12l3.13,32a1.85,1.85,0,0,0,1.79,1.67l31,.93h.06a1.86,1.86,0,0,0,1.86-1.87c0-.15,0-16.28,9.06-53.46a5.15,5.15,0,0,0-.87-4.47c-2.63-3.47-9.57-3.82-10.35-3.85Z" id="el_q5KAivhP1cp"/><g id="el_jtSQYwXL2FO"><path d="M161.06,247.3h-3.28c-15.21,1.55-7.09,26.78-7.09,26.78l3.14,32.17,7,.2-3-32.23S151.19,252.72,161.06,247.3Z" id="el_r2ilprDPoS_"/></g><path d="M175.56,247.57s-2.79,47.76-3,55.44l-9.66-.16L160.65,248S172.83,246.2,175.56,247.57Z" stroke-linejoin="round" id="el_YvQasUoX1h6"/><path d="M175.56,228.16v19.41a15.23,15.23,0,0,1-9.43,2.75c-4-.15-5.48-2.3-5.48-2.3l.16-18.16Z" stroke-miterlimit="10" id="el_AYvjEVLkSyv"/><path d="M180.54,220.58c-1,.07-2.8,2.27-4,4,.6-5.79,1.31-13,1.31-13s-11-4.68-14.84-4.65c-3.67,0-13.92,4.65-13.92,4.65L149,224.88s-.22,19,11.54,19c3.22,0,11.21-2.77,15.18-12.33a3.33,3.33,0,0,0,3.52-1.9C182.33,224.15,182.59,220.45,180.54,220.58Z" stroke-miterlimit="10" id="el_x92968cBjmf"/><path d="M150.53,217.22c6.76,1.44,13.25-3.51,17.08-5.56,4.57-2.46,6.94-1,6.93,2.67s0,9.23,0,12.11c0,.6.71,1,1.08.48,1.44-1.85,4.23-5.46,4.87-6.59,1.43-2.55,4.54-16.86-5-21.3-7.55-3.52-14.29.42-17.31,1.11C150.42,201.91,141.28,215.25,150.53,217.22Z" id="el_utPlWz_otk6"/><path d="M154.6,221.58a1.39,1.39,0,1,1-1.39-1.39A1.39,1.39,0,0,1,154.6,221.58Z" id="el_3ehJlgaRz8y"/><path d="M167.32,221.7a1.39,1.39,0,1,1-1.39-1.39A1.39,1.39,0,0,1,167.32,221.7Z" id="el_0fa2lQa0Bys"/><path d="M155.78,234.41a5,5,0,0,0,3.35.67c1.28-.13,4.24-1.22,4.29-3.29" stroke-linecap="round" stroke-linejoin="round" id="el_jVtkqYBgx-o"/><polygon points="185.88 308.05 152.74 308.05 152.74 302.41 185.81 302.37 185.88 308.05" stroke-linecap="round" stroke-linejoin="round" id="el_HU81ymaymGw"/><path d="M172.4,301.57H164a1.41,1.41,0,0,0-1.5,1.28v4.7a1.41,1.41,0,0,0,1.5,1.28h8.37a1.41,1.41,0,0,0,1.5-1.28v-4.7A1.41,1.41,0,0,0,172.4,301.57Zm-.46,1.82V307c0,.21,0,.33-.47.33H165c-.45,0-.47-.12-.47-.33v-3.62c0-.21,0-.33.47-.33h6.51C171.92,303.06,171.94,303.18,171.94,303.39Z" id="el_MyT81zEupp1"/><path d="M188.75,288c-4,0-11.39-1.4-14.72,6.66-1.28,3.1-1,6.76,3,6s10.34-5.26,10.34-5.26S194.37,288,188.75,288Z" stroke-miterlimit="10" id="el_ezs64_pLg4H"/><path d="M193.32,249.38s20.12,18.65,15.36,31.17c-4.24,11.15-22.35,15.88-22.35,15.88l-2.44-8.72s14.3-6.67,14-11.36c-.28-3.9-6.46-7.92-6.46-7.92s-2.68-6.89-2.68-12.05C188.72,249.12,193.32,249.38,193.32,249.38Z" stroke-linejoin="round" id="el_K1cP_ljsMO9"/><path d="M194.08,279.82c-.08,1.63-.19,4.86,1.93,6.31a3.92,3.92,0,0,0,5.26-.35c.95-1.09-.26-3.69-1.23-4.73a12,12,0,0,1-2.8-6.31A5.51,5.51,0,0,0,194.08,279.82Z" stroke-linecap="round" stroke-linejoin="round" id="el_qYSx-7txAKM"/><path d="M266.61,291.3c-3.5-13.06-7.11-19-10.06-21.07-3.81-2.66-6.2-1.41-6.63-.63-2.06,3.7-.43,4.93,5.57,14.32,8.13,12.72,7.84,22.63,7.91,23.1-.31.57-5,2.32-5.48,5-.12.76,1,1.5,4-.61,1.42-1,.14,1.86-.36,4.49-.8,4.21,1.08,4.17,2.76,2.63,2.57-2.36,3-6.44,3.69-10C268.49,305.62,269,300.07,266.61,291.3Z" stroke-miterlimit="10" id="el_yYNt89udaTa"/><path d="M235,268.59s.17-7.25,6.29-10.31c4-2,8.67-1.13,10.47,2.36a24.65,24.65,0,0,1,1.7,5.46S237.4,264.83,235,268.59Z" stroke-miterlimit="10" id="el_nQEuGb5qPQO"/><path d="M235.05,268.59s.78-6.2-3.67-9.26a5.51,5.51,0,0,0-8.32,3.23,14.69,14.69,0,0,0-.06,2.19S233.3,264.83,235.05,268.59Z" stroke-linecap="round" stroke-linejoin="round" id="el_NWc1NMUjcoC"/><path d="M234.93,267.74s-6.17,26.66,2,44.7" stroke-linecap="round" stroke-linejoin="round" id="el_ebUJbC9hm9-"/><path d="M268.74,290.3c-2.93-13.07-8.81-18.76-11.78-21.19-3.84-3.14-7.33-.8-7.92-.13-2.78,3.17.85,6.37,7.38,16.26,4.89,7.38,5.51,18,5.42,21.05l7.22,3C269.68,307,270.4,297.72,268.74,290.3Z" stroke-linejoin="round" id="el_m6WqubFV3Me"/><path d="M253.38,299.05a15.1,15.1,0,0,1-10.19.7" stroke-linecap="round" stroke-linejoin="round" id="el_pM35R-osEoW"/><path d="M251.88,288.29a21.13,21.13,0,0,1-12-1.39" stroke-linecap="round" stroke-linejoin="round" id="el_XJNLyMR-Ega"/><path d="M224.84,283.91a5.91,5.91,0,0,1-3.34-1" stroke-linecap="round" stroke-linejoin="round" id="el_56l-xorqX3q"/><path d="M225.51,298.74A6,6,0,0,1,222,299" stroke-linecap="round" stroke-linejoin="round" id="el_fxH4WySPeSS"/><path d="M173.06,212.1s-14.55,12.75-28.39,5c0,0-4.65-2.9,4.07-10.88Z" stroke-linejoin="round" id="el_ncV-Lig24Wt"/><path d="M148.09,202.67c-2,2-5.26,8.64,0,11.4s22.39-.22,28.76-2.2c6.16-1.92,4.6-5.38,4.19-11.29-.47-6.64-7.1-9.43-17.46-7.34C156.25,194.72,152.29,198.6,148.09,202.67Z" stroke-linejoin="round" id="el__MJjHI0CgOE"/><line x1="17.77" y1="378.11" x2="291.77" y2="378.11" stroke-linecap="round" stroke-miterlimit="10" id="el_DpfGmgiMcTn"/></g></g></g></g></svg>
