<svg id="exqf8fehn11t1" xmlns="http://www.w3.org/2000/svg" xmlns:xlink="http://www.w3.org/1999/xlink" viewBox="0 0 202.690000 39.700000" shape-rendering="geometricPrecision" text-rendering="geometricPrecision"><style><![CDATA[#exqf8fehn11t5 {
           animation-name: exqf8fehn11t5_s_do, exqf8fehn11t5_s_da;
           animation-duration: 5000ms;
           animation-fill-mode: forwards;
           animation-timing-function: linear;
           animation-direction: normal;
           animation-iteration-count: infinite;  
        }@keyframes exqf8fehn11t5_s_do { 0% {stroke-dashoffset: 31.390000} 24% {stroke-dashoffset: 31.390000} 34% {stroke-dashoffset: 0} 100% {stroke-dashoffset: 0} }@keyframes exqf8fehn11t5_s_da { 0% {stroke-dasharray: 31, 39} 24% {stroke-dasharray: 31, 39} 34% {stroke-dasharray: 0} 100% {stroke-dasharray: 0} }#exqf8fehn11t6 {
           animation-name: exqf8fehn11t6_s_do, exqf8fehn11t6_s_da;
           animation-duration: 5000ms;
           animation-fill-mode: forwards;
           animation-timing-function: linear;
           animation-direction: normal;
           animation-iteration-count: infinite;  
        }@keyframes exqf8fehn11t6_s_do { 0% {stroke-dashoffset: 28.720000} 22% {stroke-dashoffset: 28.720000} 32% {stroke-dashoffset: 0} 100% {stroke-dashoffset: 0} }@keyframes exqf8fehn11t6_s_da { 0% {stroke-dasharray: 28, 72} 22% {stroke-dasharray: 28, 72} 32% {stroke-dasharray: 0} 100% {stroke-dasharray: 0} }#exqf8fehn11t7 {
           animation-name: exqf8fehn11t7_s_do, exqf8fehn11t7_s_da;
           animation-duration: 5000ms;
           animation-fill-mode: forwards;
           animation-timing-function: linear;
           animation-direction: normal;
           animation-iteration-count: infinite;  
        }@keyframes exqf8fehn11t7_s_do { 0% {stroke-dashoffset: 16.390000} 20% {stroke-dashoffset: 16.390000} 30% {stroke-dashoffset: 0} 100% {stroke-dashoffset: 0} }@keyframes exqf8fehn11t7_s_da { 0% {stroke-dasharray: 16, 39} 20% {stroke-dasharray: 16, 39} 30% {stroke-dasharray: 0} 100% {stroke-dasharray: 0} }#exqf8fehn11t8 {
           animation-name: exqf8fehn11t8_s_do, exqf8fehn11t8_s_da;
           animation-duration: 5000ms;
           animation-fill-mode: forwards;
           animation-timing-function: linear;
           animation-direction: normal;
           animation-iteration-count: infinite;  
        }@keyframes exqf8fehn11t8_s_do { 0% {stroke-dashoffset: 11.540000} 18% {stroke-dashoffset: 11.540000} 28% {stroke-dashoffset: 0} 100% {stroke-dashoffset: 0} }@keyframes exqf8fehn11t8_s_da { 0% {stroke-dasharray: 11, 54} 18% {stroke-dasharray: 11, 54} 28% {stroke-dasharray: 0} 100% {stroke-dasharray: 0} }#exqf8fehn11t9 {
           animation-name: exqf8fehn11t9_s_do, exqf8fehn11t9_s_da;
           animation-duration: 5000ms;
           animation-fill-mode: forwards;
           animation-timing-function: linear;
           animation-direction: normal;
           animation-iteration-count: infinite;  
        }@keyframes exqf8fehn11t9_s_do { 0% {stroke-dashoffset: 31.460000} 16% {stroke-dashoffset: 31.460000} 26% {stroke-dashoffset: 0} 100% {stroke-dashoffset: 0} }@keyframes exqf8fehn11t9_s_da { 0% {stroke-dasharray: 31, 46} 16% {stroke-dasharray: 31, 46} 26% {stroke-dasharray: 0} 100% {stroke-dasharray: 0} }#exqf8fehn11t10 {
           animation-name: exqf8fehn11t10_s_do, exqf8fehn11t10_s_da;
           animation-duration: 5000ms;
           animation-fill-mode: forwards;
           animation-timing-function: linear;
           animation-direction: normal;
           animation-iteration-count: infinite;  
        }@keyframes exqf8fehn11t10_s_do { 0% {stroke-dashoffset: 29.880000} 14% {stroke-dashoffset: 29.880000} 24% {stroke-dashoffset: 0} 100% {stroke-dashoffset: 0} }@keyframes exqf8fehn11t10_s_da { 0% {stroke-dasharray: 29, 88} 14% {stroke-dasharray: 29, 88} 24% {stroke-dasharray: 0} 100% {stroke-dasharray: 0} }#exqf8fehn11t11 {
           animation-name: exqf8fehn11t11_s_do, exqf8fehn11t11_s_da;
           animation-duration: 5000ms;
           animation-fill-mode: forwards;
           animation-timing-function: linear;
           animation-direction: normal;
           animation-iteration-count: infinite;  
        }@keyframes exqf8fehn11t11_s_do { 0% {stroke-dashoffset: 16.450000} 12% {stroke-dashoffset: 16.450000} 22% {stroke-dashoffset: 0} 100% {stroke-dashoffset: 0} }@keyframes exqf8fehn11t11_s_da { 0% {stroke-dasharray: 16, 45} 12% {stroke-dasharray: 16, 45} 22% {stroke-dasharray: 0} 100% {stroke-dasharray: 0} }#exqf8fehn11t12 {
           animation-name: exqf8fehn11t12_s_do, exqf8fehn11t12_s_da;
           animation-duration: 5000ms;
           animation-fill-mode: forwards;
           animation-timing-function: linear;
           animation-direction: normal;
           animation-iteration-count: infinite;  
        }@keyframes exqf8fehn11t12_s_do { 0% {stroke-dashoffset: 31.520000} 10% {stroke-dashoffset: 31.520000} 20% {stroke-dashoffset: 0} 100% {stroke-dashoffset: 0} }@keyframes exqf8fehn11t12_s_da { 0% {stroke-dasharray: 31, 52} 10% {stroke-dasharray: 31, 52} 20% {stroke-dasharray: 0} 100% {stroke-dasharray: 0} }#exqf8fehn11t13 {
           animation-name: exqf8fehn11t13_s_do, exqf8fehn11t13_s_da;
           animation-duration: 5000ms;
           animation-fill-mode: forwards;
           animation-timing-function: linear;
           animation-direction: normal;
           animation-iteration-count: infinite;  
        }@keyframes exqf8fehn11t13_s_do { 0% {stroke-dashoffset: 31.330000} 8% {stroke-dashoffset: 31.330000} 18% {stroke-dashoffset: 0} 100% {stroke-dashoffset: 0} }@keyframes exqf8fehn11t13_s_da { 0% {stroke-dasharray: 31, 33} 8% {stroke-dasharray: 31, 33} 18% {stroke-dasharray: 0} 100% {stroke-dasharray: 0} }#exqf8fehn11t14 {
           animation-name: exqf8fehn11t14_s_do, exqf8fehn11t14_s_da;
           animation-duration: 5000ms;
           animation-fill-mode: forwards;
           animation-timing-function: linear;
           animation-direction: normal;
           animation-iteration-count: infinite;  
        }@keyframes exqf8fehn11t14_s_do { 0% {stroke-dashoffset: 16.450000} 6% {stroke-dashoffset: 16.450000} 15.600000% {stroke-dashoffset: 0} 100% {stroke-dashoffset: 0} }@keyframes exqf8fehn11t14_s_da { 0% {stroke-dasharray: 16, 45} 6% {stroke-dasharray: 16, 45} 15.600000% {stroke-dasharray: 0} 100% {stroke-dasharray: 0} }#exqf8fehn11t16 {animation: exqf8fehn11t16_c_o 5000ms linear infinite normal forwards}@keyframes exqf8fehn11t16_c_o { 0% {opacity: 0} 12% {opacity: 0} 22% {opacity: 1} 100% {opacity: 1} }#exqf8fehn11t17 {animation: exqf8fehn11t17_c_o 5000ms linear infinite normal forwards}@keyframes exqf8fehn11t17_c_o { 0% {opacity: 0} 10% {opacity: 0} 20% {opacity: 1} 100% {opacity: 1} }#exqf8fehn11t18 {animation: exqf8fehn11t18_c_o 5000ms linear infinite normal forwards}@keyframes exqf8fehn11t18_c_o { 0% {opacity: 0} 8% {opacity: 0} 18% {opacity: 1} 100% {opacity: 1} }#exqf8fehn11t19 {animation: exqf8fehn11t19_c_o 5000ms linear infinite normal forwards}@keyframes exqf8fehn11t19_c_o { 0% {opacity: 0} 6% {opacity: 0} 16% {opacity: 1} 100% {opacity: 1} }#exqf8fehn11t20 {animation: exqf8fehn11t20_c_o 5000ms linear infinite normal forwards}@keyframes exqf8fehn11t20_c_o { 0% {opacity: 0} 4% {opacity: 0} 14% {opacity: 1} 100% {opacity: 1} }#exqf8fehn11t21 {animation: exqf8fehn11t21_c_o 5000ms linear infinite normal forwards}@keyframes exqf8fehn11t21_c_o { 0% {opacity: 0} 2% {opacity: 0} 12% {opacity: 1} 100% {opacity: 1} }#exqf8fehn11t22 {animation: exqf8fehn11t22_c_o 5000ms linear infinite normal forwards}@keyframes exqf8fehn11t22_c_o { 0% {opacity: 0} 10% {opacity: 1} 100% {opacity: 1} }#exqf8fehn11t24 {animation: exqf8fehn11t24_c_o 5000ms linear infinite normal forwards}@keyframes exqf8fehn11t24_c_o { 0% {opacity: 0} 12% {opacity: 0} 22% {opacity: 1} 100% {opacity: 1} }#exqf8fehn11t25 {animation: exqf8fehn11t25_c_o 5000ms linear infinite normal forwards}@keyframes exqf8fehn11t25_c_o { 0% {opacity: 0} 10% {opacity: 0} 20% {opacity: 1} 100% {opacity: 1} }#exqf8fehn11t26 {animation: exqf8fehn11t26_c_o 5000ms linear infinite normal forwards}@keyframes exqf8fehn11t26_c_o { 0% {opacity: 0} 8% {opacity: 0} 18% {opacity: 1} 100% {opacity: 1} }#exqf8fehn11t27 {animation: exqf8fehn11t27_c_o 5000ms linear infinite normal forwards}@keyframes exqf8fehn11t27_c_o { 0% {opacity: 0} 6% {opacity: 0} 16% {opacity: 1} 100% {opacity: 1} }#exqf8fehn11t28 {animation: exqf8fehn11t28_c_o 5000ms linear infinite normal forwards}@keyframes exqf8fehn11t28_c_o { 0% {opacity: 0} 4% {opacity: 0} 14% {opacity: 1} 100% {opacity: 1} }#exqf8fehn11t29 {animation: exqf8fehn11t29_c_o 5000ms linear infinite normal forwards}@keyframes exqf8fehn11t29_c_o { 0% {opacity: 0} 2% {opacity: 0} 12% {opacity: 1} 100% {opacity: 1} }#exqf8fehn11t30 {animation: exqf8fehn11t30_c_o 5000ms linear infinite normal forwards}@keyframes exqf8fehn11t30_c_o { 0% {opacity: 0} 10% {opacity: 1} 100% {opacity: 1} }]]></style><g id="exqf8fehn11t2"><g id="exqf8fehn11t3"><g id="exqf8fehn11t4"><path id="exqf8fehn11t5" d="M163.230000,16.370000C162.814720,15.924377,162.301068,15.581942,161.730000,15.370000C161.126954,15.171724,160.494673,15.077051,159.860000,15.090000C159.254585,15.092297,158.651153,15.159345,158.060000,15.290000C157.620371,15.398193,157.203754,15.584485,156.830000,15.840000C156.526858,16.070293,156.286206,16.372827,156.130000,16.720000C155.983977,17.089277,155.909324,17.482901,155.910000,17.880000C155.903664,18.225997,155.979038,18.568609,156.130000,18.880000C156.291579,19.171397,156.525846,19.415999,156.810000,19.590000C157.185220,19.808438,157.589127,19.973366,158.010000,20.080000C158.590000,20.250000,159.170000,20.380000,159.750000,20.490000C160.330000,20.600000,161.040000,20.770000,161.600000,20.920000C162.089162,21.044444,162.557463,21.239851,162.990000,21.500000C163.357600,21.702780,163.664740,21.999566,163.880000,22.360000C164.504503,23.564298,164.146148,25.044649,163.040000,25.830000C162.081470,26.380607,160.983725,26.641148,159.880000,26.580000C158.987692,26.598479,158.099592,26.452722,157.260000,26.150000C156.464183,25.848825,155.741528,25.381826,155.140000,24.780000" fill="none" stroke="rgb(0,0,0)" stroke-width="2" stroke-dashoffset="31.390000" stroke-dasharray="31,39"/><path id="exqf8fehn11t6" d="M150.410000,15.060000L141.930000,15.060000L141.930000,26.600000L150.630000,26.600000M141.830000,20.940000L141.830000,20.940000Z" fill="none" stroke="rgb(0,0,0)" stroke-width="2" stroke-dashoffset="28.720000" stroke-dasharray="28,72"/><path id="exqf8fehn11t7" d="M137.530000,15.190000L132.700000,15.190000L132.700000,26.750000" fill="none" stroke="rgb(0,0,0)" stroke-width="2" stroke-dashoffset="16.390000" stroke-dasharray="16,39"/><path id="exqf8fehn11t8" d="M123.470000,15.170000L123.470000,26.710000" fill="none" stroke="rgb(0,0,0)" stroke-width="2" stroke-dashoffset="11.540000" stroke-dasharray="11,54"/><path id="exqf8fehn11t9" d="M117.810000,16.630000C117.393597,16.181040,116.875865,15.838171,116.300000,15.630000C115.700401,15.431709,115.071403,15.337021,114.440000,15.350000C113.831866,15.353290,113.225561,15.416935,112.630000,15.540000C112.186695,15.644317,111.770762,15.842056,111.410000,16.120000C111.106896,16.352878,110.863532,16.654513,110.700000,17C110.556207,17.369607,110.484910,17.763440,110.490000,18.160000C110.468548,18.522235,110.540877,18.883880,110.700000,19.210000C110.866861,19.500754,111.104131,19.744901,111.390000,19.920000C111.765619,20.137626,112.169410,20.302507,112.590000,20.410000C113.170000,20.580000,113.750000,20.710000,114.330000,20.820000C114.910000,20.930000,115.620000,21.100000,116.180000,21.250000C116.668538,21.376306,117.136578,21.571604,117.570000,21.830000C117.932115,22.032181,118.235385,22.325113,118.450000,22.680000C119.075806,23.887310,118.717647,25.371110,117.610000,26.160000C116.655660,26.711971,115.560685,26.972679,114.460000,26.910000C113.567692,26.928479,112.679592,26.782722,111.840000,26.480000C111.040612,26.180084,110.314438,25.713014,109.710000,25.110000" fill="none" stroke="rgb(0,0,0)" stroke-width="2" stroke-dashoffset="31.460000" stroke-dasharray="31,46"/><path id="exqf8fehn11t10" d="M87.190000,15L91.900000,21.820000L91.900000,26.820000M91.900000,21.870000L96.620000,15.050000Z" fill="none" stroke="rgb(0,0,0)" stroke-width="2" stroke-dashoffset="29.880000" stroke-dasharray="29,88"/><path id="exqf8fehn11t11" d="M79.470000,26.790000L79.470000,15.190000L84.320000,15.190000" fill="none" stroke="rgb(0,0,0)" stroke-width="2" stroke-dashoffset="16.450000" stroke-dasharray="16,45"/><path id="exqf8fehn11t12" d="M71.160000,16.350000C70.741387,15.896134,70.229735,15.537978,69.660000,15.300000C69.057940,15.095682,68.425759,14.994262,67.790000,15C67.181924,15.004325,66.575719,15.067959,65.980000,15.190000C65.537397,15.296313,65.121865,15.493860,64.760000,15.770000C64.456896,16.002878,64.213532,16.304513,64.050000,16.650000C63.906207,17.019607,63.834910,17.413440,63.840000,17.810000C63.823278,18.171892,63.895375,18.532378,64.050000,18.860000C64.216861,19.150754,64.454131,19.394901,64.740000,19.570000C65.115619,19.787626,65.519410,19.952507,65.940000,20.060000C66.520000,20.230000,67.100000,20.360000,67.680000,20.470000C68.260000,20.580000,68.970000,20.750000,69.530000,20.900000C70.018538,21.026306,70.486578,21.221604,70.920000,21.480000C71.284105,21.679490,71.588006,21.973031,71.800000,22.330000C72.428424,23.543335,72.070654,25.034044,70.960000,25.830000C70.010068,26.394530,68.913241,26.662643,67.810000,26.600000C66.917692,26.618479,66.029592,26.472722,65.190000,26.170000C64.395878,25.850522,63.672195,25.378259,63.060000,24.780000" fill="none" stroke="rgb(0,0,0)" stroke-width="2" stroke-dashoffset="31.520000" stroke-dasharray="31,52"/><path id="exqf8fehn11t13" d="M49.660000,26.610000L55,15L55.310000,15L60.610000,26.620000L55.140000,26.620000" fill="none" stroke="rgb(0,0,0)" stroke-width="2" stroke-dashoffset="31.330000" stroke-dasharray="31,33"/><path id="exqf8fehn11t14" d="M43.830000,26.620000L43.830000,15L39,15" fill="none" stroke="rgb(0,0,0)" stroke-width="2" stroke-dashoffset="16.450000" stroke-dasharray="16,45"/></g><g id="exqf8fehn11t15"><path id="exqf8fehn11t16" d="M174.550000,39.700000L174.160000,37.140000L171.250000,36.760000Z" opacity="0" fill="rgb(0,0,0)" stroke="none" stroke-width="1"/><path id="exqf8fehn11t17" d="M171,36.300000L177,32.610000L177.730000,37.150000Z" opacity="0" fill="rgb(0,0,0)" stroke="none" stroke-width="1"/><path id="exqf8fehn11t18" d="M178.210000,37L183.390000,25.460000L176.040000,23.460000Z" opacity="0" fill="rgb(0,0,0)" stroke="none" stroke-width="1"/><path id="exqf8fehn11t19" d="M202.690000,30.240000L199.790000,25.840000L176.390000,23Z" opacity="0" fill="rgb(0,0,0)" stroke="none" stroke-width="1"/><path id="exqf8fehn11t20" d="M177,11.380000L193.370000,13.620000L176,22.400000L174.340000,16.170000Z" opacity="0" fill="rgb(0,0,0)" stroke="none" stroke-width="1"/><path id="exqf8fehn11t21" d="M181.420000,1.550000L184.790000,12L177,10.910000Z" opacity="0" fill="rgb(0,0,0)" stroke="none" stroke-width="1"/><path id="exqf8fehn11t22" d="M174.380000,0L181,1.080000L179,5.390000Z" opacity="0" fill="rgb(0,0,0)" stroke="none" stroke-width="1"/></g><g id="exqf8fehn11t23"><path id="exqf8fehn11t24" d="M28.570000,0L22,1.080000L24,5.390000Z" opacity="0" fill="rgb(0,0,0)" stroke="none" stroke-width="1"/><path id="exqf8fehn11t25" d="M21.500000,1.430000L18.150000,11.860000L26,10.800000Z" opacity="0" fill="rgb(0,0,0)" stroke="none" stroke-width="1"/><path id="exqf8fehn11t26" d="M25.840000,11.380000L9.460000,13.620000L26.780000,22.400000L28.440000,16.170000Z" transform="matrix(1 0 0 1 -0 0)" opacity="0" fill="rgb(0,0,0)" stroke="none" stroke-width="1"/><path id="exqf8fehn11t27" d="M0,30.240000L2.910000,25.840000L26.320000,23Z" opacity="0" fill="rgb(0,0,0)" stroke="none" stroke-width="1"/><path id="exqf8fehn11t28" d="M24.600000,37.150000L19.430000,25.610000L26.790000,23.610000Z" opacity="0" fill="rgb(0,0,0)" stroke="none" stroke-width="1"/><path id="exqf8fehn11t29" d="M31.810000,36.410000L25.810000,32.730000L25.070000,37.270000Z" opacity="0" fill="rgb(0,0,0)" stroke="none" stroke-width="1"/><path id="exqf8fehn11t30" d="M28.500000,39.700000L28.900000,37.140000L31.820000,36.760000Z" opacity="0" fill="rgb(0,0,0)" stroke="none" stroke-width="1"/></g></g></g></svg>