<svg xmlns="http://www.w3.org/2000/svg" width="100" height="100" viewBox="0 0 50 50"><title>upwork</title><g id="Layer_2" data-name="Layer 2"><g id="Layer_1-2" data-name="Layer 1"><circle cx="25" cy="25" r="25" fill="#6fda44"/><path d="M9.54,13.4a.65.65,0,0,0-.65.65v9.09a7.58,7.58,0,0,0,7,7.65,7.43,7.43,0,0,0,7.71-6c.37.5.74,1,1.12,1.39l-2.28,9.65a.66.66,0,0,0,.63.79h3.3a.64.64,0,0,0,.63-.49c.4-1.69,1-4.34,1.59-6.74l.59.34a9.14,9.14,0,0,0,4.22,1.09,7.74,7.74,0,1,0-7-11.12s-.16.37-.3.74a19.24,19.24,0,0,1-2-5.11c-.12-.51-.3-1.42-.32-1.48a.64.64,0,0,0-.61-.43H19.85a.65.65,0,0,0-.65.65v9.21a3,3,0,0,1-2.61,3,2.9,2.9,0,0,1-3.19-2.88V14.05a.65.65,0,0,0-.64-.65Zm23.84,6.45a3.22,3.22,0,0,1,0,6.44,6.26,6.26,0,0,1-3.7-1.62c.34-1.43.57-2.39.58-2.41A3.21,3.21,0,0,1,33.38,19.85Z" fill="#fff"/></g></g></svg>