<svg xmlns="http://www.w3.org/2000/svg" width="100" height="100" viewBox="0 0 512 512"><title>youtube-icon</title><g id="Layer_2" data-name="Layer 2"><g id="Layer_1-2" data-name="Layer 1"><circle cx="256" cy="256" r="256" fill="#fff"/><path d="M82.41,344.81c7.41,26.28,30.07,31.09,31.59,32,37.3,10.16,246.37,10.19,284.23,0,25.93-7.5,30.7-30.5,31.59-32,9.87-52.53,10.52-121-.46-180.61l.46,3c-7.41-26.28-30.08-31.09-31.59-32-36.8-10-246.42-10.37-284.23,0-25.93,7.51-30.7,30.5-31.59,32C71.84,222.37,71.31,285.71,82.41,344.81ZM219.79,311.2V200.93l94.74,55.22Z" fill="#e53935"/></g></g></svg>